<?xml version="1.0" encoding="UTF-8"?>
<svg id="Capa_1" xmlns="http://www.w3.org/2000/svg" version="1.1" xmlns:xlink="http://www.w3.org/1999/xlink" viewBox="0 0 1423.5 926.52">
  <!-- Generator: Adobe Illustrator 29.6.1, SVG Export Plug-In . SVG Version: 2.1.1 Build 9)  -->
  <defs>
    <style>
      .st0 {
        fill: url(#Degradado_sin_nombre_6);
      }

      .st1 {
        fill: url(#Degradado_sin_nombre_5);
      }

      .st2 {
        fill: #1461aa;
      }

      .st3 {
        fill: #fff;
        stroke: #f3f4f4;
        stroke-width: .75px;
      }

      .st3, .st4 {
        stroke-miterlimit: 10;
      }

      .st5 {
        fill: url(#Degradado_sin_nombre_4);
      }

      .st6 {
        fill: url(#Degradado_sin_nombre_2);
      }

      .st7 {
        fill: url(#Degradado_sin_nombre_7);
      }

      .st8 {
        fill: url(#Degradado_sin_nombre_3);
      }

      .st9 {
        fill: url(#Degradado_sin_nombre);
      }

      .st4 {
        fill: none;
        stroke: #0972b8;
        stroke-width: 3px;
      }
    </style>
    <linearGradient id="Degradado_sin_nombre" data-name="Degradado sin nombre" x1="104.94" y1="230.92" x2="104.94" y2="-82.49" gradientTransform="translate(0 518)" gradientUnits="userSpaceOnUse">
      <stop offset="0" stop-color="#1461aa"/>
      <stop offset=".11" stop-color="#1f6fb3"/>
      <stop offset=".51" stop-color="#499fd2"/>
      <stop offset=".82" stop-color="#62bce6"/>
      <stop offset="1" stop-color="#6cc8ee"/>
    </linearGradient>
    <linearGradient id="Degradado_sin_nombre_2" data-name="Degradado sin nombre 2" x1="627.29" y1="237.76" x2="627.29" y2="-100.05" gradientTransform="translate(0 518)" gradientUnits="userSpaceOnUse">
      <stop offset="0" stop-color="#6cc8ee"/>
      <stop offset=".18" stop-color="#62bce6"/>
      <stop offset=".49" stop-color="#499fd2"/>
      <stop offset=".89" stop-color="#1f6fb3"/>
      <stop offset="1" stop-color="#1461aa"/>
    </linearGradient>
    <linearGradient id="Degradado_sin_nombre_3" data-name="Degradado sin nombre 3" x1="19.63" y1="-241.65" x2="399.26" y2="137.99" gradientTransform="translate(0 518)" gradientUnits="userSpaceOnUse">
      <stop offset="0" stop-color="#1461aa"/>
      <stop offset=".11" stop-color="#1f6fb3"/>
      <stop offset=".51" stop-color="#499fd2"/>
      <stop offset=".82" stop-color="#62bce6"/>
      <stop offset="1" stop-color="#6cc8ee"/>
    </linearGradient>
    <linearGradient id="Degradado_sin_nombre_4" data-name="Degradado sin nombre 4" x1="1572.73" y1="-284.9" x2="2015.74" y2="158.1" gradientTransform="translate(2328.6 518) rotate(-180) scale(1 -1)" gradientUnits="userSpaceOnUse">
      <stop offset="0" stop-color="#6cc8ee"/>
      <stop offset=".18" stop-color="#62bce6"/>
      <stop offset=".49" stop-color="#499fd2"/>
      <stop offset=".89" stop-color="#1f6fb3"/>
      <stop offset="1" stop-color="#1461aa"/>
    </linearGradient>
    <linearGradient id="Degradado_sin_nombre_5" data-name="Degradado sin nombre 5" x1="1312.87" y1="1714.01" x2="1312.87" y2="1003.95" gradientTransform="translate(-294.67 1568.41) rotate(-90)" gradientUnits="userSpaceOnUse">
      <stop offset="0" stop-color="#1461aa"/>
      <stop offset=".11" stop-color="#1f6fb3"/>
      <stop offset=".51" stop-color="#499fd2"/>
      <stop offset=".82" stop-color="#62bce6"/>
      <stop offset="1" stop-color="#6cc8ee"/>
    </linearGradient>
    <linearGradient id="Degradado_sin_nombre_6" data-name="Degradado sin nombre 6" x1="914.28" y1="1706.48" x2="914.28" y2="1110.15" gradientTransform="translate(-294.67 1568.41) rotate(-90)" gradientUnits="userSpaceOnUse">
      <stop offset="0" stop-color="#1461aa"/>
      <stop offset=".11" stop-color="#1f6fb3"/>
      <stop offset=".51" stop-color="#499fd2"/>
      <stop offset=".82" stop-color="#62bce6"/>
      <stop offset="1" stop-color="#6cc8ee"/>
    </linearGradient>
    <linearGradient id="Degradado_sin_nombre_7" data-name="Degradado sin nombre 7" x1="473.96" y1="2142.79" x2="473.96" y2="1971.79" gradientTransform="translate(-1279.67 928.41) rotate(-90)" gradientUnits="userSpaceOnUse">
      <stop offset="0" stop-color="#1461aa"/>
      <stop offset=".11" stop-color="#1f6fb3"/>
      <stop offset=".51" stop-color="#499fd2"/>
      <stop offset=".82" stop-color="#62bce6"/>
      <stop offset="1" stop-color="#6cc8ee"/>
    </linearGradient>
  </defs>
  <g>
    <polygon class="st9" points="29.63 454.7 29.63 729.36 180.26 729.36 180.26 605.35 29.63 454.7"/>
    <polygon class="st6" points="551.98 509.16 551.98 729.36 702.61 729.36 702.61 358.53 551.98 509.16"/>
    <polygon class="st8" points="366.12 516.33 29.63 179.84 29.63 392.87 366.12 729.36 366.12 516.33"/>
    <polygon class="st5" points="366.12 516.33 702.61 179.84 702.61 392.87 366.12 729.36 366.12 516.33"/>
    <g>
      <path class="st2" d="M29.72,835.53h-10.43v-10.43h10.43v10.43ZM19.29,882.47v-41.67h10.43v41.67h-10.43Z"/>
      <path class="st2" d="M90.69,825.09v10.51h-23.35v46.86h-10.6v-46.86h-23.43v-10.51h57.38Z"/>
      <path class="st2" d="M143.24,825.09h10.6v46.3c0,6.13-5.03,11.07-11.07,11.07h-35.23c-6.13,0-11.07-4.94-11.07-11.07v-46.3h10.52v46.3c0,.33.25.56.56.56h35.23c.23,0,.47-.23.47-.56v-46.3h-.01Z"/>
      <path class="st2" d="M242.34,847.4c0,1.51-.25,2.86-.79,4.06,1.84,1.91,3.11,4.7,3.11,7.57v12.36c0,6.13-5.01,11.07-11.15,11.07h-46.22v-57.38h43.98c6.06,0,11.08,4.94,11.08,11.07v11.24h-.01ZM198.35,835.61c-.33,0-.56.25-.56.56v11.24c0,.33.23.56.56.56h32.91c.25,0,.48-.23.48-.56v-11.24c0-.33-.23-.56-.48-.56h-32.91ZM234.04,859.04c0-.33-.25-.48-.56-.48h-35.15c-.33,0-.56.16-.56.48v12.36c0,.33.23.56.56.56h35.15c.31,0,.56-.23.56-.56v-12.36Z"/>
      <path class="st2" d="M253.37,825.09h10.52v57.38h-10.52v-57.38Z"/>
      <path class="st2" d="M323.66,835.61h-42.15v12.91h33.94v10.52h-33.94v12.91h42.15v10.52h-52.75v-57.38h52.75v10.51h0Z"/>
      <path class="st2" d="M378.52,825.09h10.6v57.38h-11.47l-35.38-42.08v42.08h-10.52v-57.38h11.47l35.3,42.08v-42.08h0Z"/>
      <path class="st2" d="M450.91,835.61h-42.15v12.91h33.94v10.52h-33.94v12.91h42.15v10.52h-52.75v-57.38h52.75v10.51h0Z"/>
      <path class="st2" d="M515.95,840.55h-10.6v-4.38c0-.33-.23-.56-.48-.56h-35.23c-.33,0-.56.25-.56.56v11.8c0,.33.23.56.56.56h35.23c6.06,0,11.07,4.94,11.07,11.07v11.8c0,6.13-5.01,11.07-11.07,11.07h-35.23c-6.13,0-11.07-4.94-11.07-11.07v-4.39h10.52v4.39c0,.33.23.56.56.56h35.23c.25,0,.48-.23.48-.56v-11.8c0-.31-.23-.56-.48-.56h-35.23c-6.13,0-11.07-4.94-11.07-11.07v-11.8c0-6.13,4.94-11.07,11.07-11.07h35.23c6.06,0,11.07,4.94,11.07,11.07v4.38Z"/>
      <path class="st2" d="M578.94,825.09v10.51h-23.35v46.86h-10.6v-46.86h-23.43v-10.51h57.38Z"/>
      <path class="st2" d="M631.24,825.09c6.13,0,11.16,4.94,11.16,11.07v46.3h-10.6v-19.29h-36.25v19.29h-10.52v-46.3c0-6.13,4.94-11.07,11.07-11.07h35.15ZM631.8,852.66v-16.5c0-.33-.23-.56-.56-.56h-35.15c-.33,0-.56.25-.56.56v16.5h36.27Z"/>
      <path class="st2" d="M708.74,851.71c0,6.06-5.01,11.07-11.15,11.07h-3.11l14.26,16.97v2.71h-11.47l-16.58-19.68h-18.8v19.68h-10.52v-57.3h46.22c6.13,0,11.15,5.03,11.15,11.07v15.48h.01ZM697.58,852.26c.33,0,.56-.23.56-.56v-15.46c0-.33-.23-.56-.56-.56h-35.15c-.33,0-.56.23-.56.56v15.46c0,.33.23.56.56.56h35.15Z"/>
      <path class="st2" d="M788.4,825.09h10.6v57.38h-11.47l-35.38-42.08v42.08h-10.52v-57.38h11.47l35.3,42.08v-42.08Z"/>
      <path class="st2" d="M854.01,825.09c6.06,0,11.07,4.94,11.07,11.07v35.23c0,6.13-5.03,11.07-11.07,11.07h-35.23c-6.13,0-11.07-4.94-11.07-11.07v-35.23c0-6.13,4.94-11.07,11.07-11.07h35.23ZM854.01,871.95c.23,0,.47-.23.47-.56v-35.23c0-.33-.23-.56-.47-.56h-35.23c-.31,0-.56.25-.56.56v35.23c0,.33.25.56.56.56h35.23Z"/>
      <path class="st2" d="M930.77,840.55h-10.6v-4.38c0-.33-.23-.56-.48-.56h-35.23c-.33,0-.56.25-.56.56v11.8c0,.33.23.56.56.56h35.23c6.06,0,11.07,4.94,11.07,11.07v11.8c0,6.13-5.01,11.07-11.07,11.07h-35.23c-6.13,0-11.07-4.94-11.07-11.07v-4.39h10.52v4.39c0,.33.23.56.56.56h35.23c.25,0,.48-.23.48-.56v-11.8c0-.31-.23-.56-.48-.56h-35.23c-6.13,0-11.07-4.94-11.07-11.07v-11.8c0-6.13,4.94-11.07,11.07-11.07h35.23c6.06,0,11.07,4.94,11.07,11.07v4.38Z"/>
      <path class="st2" d="M963.83,825.09h10.52v57.38h-10.52v-57.38Z"/>
      <path class="st2" d="M1034.36,825.09h11.55v57.38h-10.6v-42.08l-21.76,25.9-21.84-25.9v42.08h-10.52v-57.38h11.47l20.88,24.86,20.8-24.86h.03Z"/>
      <path class="st2" d="M1101.33,825.17c6.13,0,11.16,5.03,11.16,11.07v15.46c0,6.06-5.03,11.07-11.16,11.07l-35.46.08-.25-.08v19.68h-10.52v-57.3h46.22v.03h.01ZM1101.88,836.25c0-.33-.23-.56-.56-.56h-35.15c-.31,0-.56.23-.56.56v15.46c0,.33.25.56.56.56h35.15c.33,0,.56-.23.56-.56v-15.46Z"/>
      <path class="st2" d="M1164.23,825.09c6.06,0,11.07,4.94,11.07,11.07v35.23c0,6.13-5.03,11.07-11.07,11.07h-35.23c-6.13,0-11.07-4.94-11.07-11.07v-35.23c0-6.13,4.94-11.07,11.07-11.07h35.23ZM1164.23,871.95c.23,0,.47-.23.47-.56v-35.23c0-.33-.23-.56-.47-.56h-35.23c-.31,0-.56.25-.56.56v35.23c0,.33.25.56.56.56h35.23Z"/>
      <path class="st2" d="M1241.32,851.71c0,6.06-5.01,11.07-11.15,11.07h-3.11l14.26,16.97v2.71h-11.47l-16.58-19.68h-18.8v19.68h-10.52v-57.3h46.22c6.13,0,11.15,5.03,11.15,11.07v15.48h.01ZM1230.16,852.26c.33,0,.56-.23.56-.56v-15.46c0-.33-.23-.56-.56-.56h-35.15c-.33,0-.56.23-.56.56v15.46c0,.33.23.56.56.56h35.15Z"/>
      <path class="st2" d="M1304.23,825.09v10.51h-23.35v46.86h-10.6v-46.86h-23.43v-10.51h57.38Z"/>
      <path class="st2" d="M1356.53,825.09c6.13,0,11.16,4.94,11.16,11.07v46.3h-10.6v-19.29h-36.25v19.29h-10.52v-46.3c0-6.13,4.94-11.07,11.07-11.07h35.15ZM1357.09,852.66v-16.5c0-.33-.23-.56-.56-.56h-35.15c-.33,0-.56.25-.56.56v16.5h36.27Z"/>
      <path class="st2" d="M1376.89,825.09h10.44v41.67h-10.44v-41.67ZM1376.89,882.47v-10.43h10.44v10.43h-10.44Z"/>
    </g>
    <polygon class="st1" points="1375.04 178.7 1375.04 329.32 883.37 332.37 752.81 179.47 1375.04 178.7"/>
    <rect class="st0" x="852.03" y="578.82" width="522.58" height="150.62"/>
    <polygon class="st7" points="852.46 729.43 852.46 348.52 702.61 179.47 702.61 729.43 852.46 729.43"/>
    <path class="st3" d="M722.09,512.24c.36-23.05-16.46-35.49-36.23-35.49-22.69,0-37.69,13.91-37.69,33.3,0,16.46,9.14,30,26.71,48.67l84.15,85.26c4.75-6.59,9.14-13.91,13.91-21.96l23.41-39.15h27.44l-27.8,47.94c-6.59,11.34-13.17,21.59-19.76,30.73l53.42,53.78h-33.3l-34.76-35.49c-24.89,27.07-51.96,39.89-87.81,39.89-51.6,0-87.08-30.73-87.08-77.58,0-35.85,20.86-63.3,60.37-78.67-17.2-18.66-24.52-34.03-24.52-53.05,0-32.2,25.25-54.89,64.4-54.89,36.59,0,62.2,23.05,60.74,56.71h-25.62.01ZM744.77,662.62l-81.6-82.69c-34.76,12.8-50.85,33.3-50.85,61.47,0,32.19,25.25,55.98,61.47,55.98,28.91,0,50.49-10.98,70.99-34.76h0Z"/>
  </g>
  <g>
    <path class="st2" d="M108.56,44.27h-8.46v-3.03c0-2.2-1.88-4.08-4.08-4.08h-50.19c-2.2,0-4.08,1.88-4.08,4.08v50.19c0,2.2,1.88,4.08,4.08,4.08h50.19c2.2,0,4.08-1.88,4.08-4.08v-18.61h-18.61v-8.57h27.07v27.18c0,7.01-5.55,12.54-12.54,12.54h-50.19c-7.01,0-12.54-5.55-12.54-12.54v-50.19c0-7.01,5.55-12.54,12.54-12.54h50.19c7.01,0,12.54,5.55,12.54,12.54v3.03Z"/>
    <path class="st2" d="M216.15,63.4c0,6.9-5.55,12.54-12.54,12.54h-11.5l23.62,28.02h-11.19l-23.52-28.02h-27.59c-1.04,0-2.51-.21-4.08-.42v28.44h-8.46V28.8h62.73c7.01,0,12.54,5.65,12.54,12.54v22.06h-.01ZM203.61,67.37c2.2,0,3.97-1.77,3.97-3.97v-22.06c0-2.2-1.77-4.08-3.97-4.08h-50.19c-2.2,0-4.08,1.88-4.08,4.08v22.06c0,2.2,1.88,3.97,4.08,3.97h50.19Z"/>
    <path class="st2" d="M314.77,28.7h8.46v62.73c0,7.01-5.55,12.54-12.54,12.54h-50.19c-7.01,0-12.54-5.55-12.54-12.54V28.7h8.46v62.73c0,2.2,1.88,4.08,4.08,4.08h50.19c2.2,0,4.08-1.88,4.08-4.08V28.7h0Z"/>
    <path class="st2" d="M418.39,28.8c7.01,0,12.54,5.65,12.54,12.54v22.06c0,6.9-5.55,12.54-12.54,12.54h-50.19c-.94,0-2.51-.21-4.08-.42v28.44h-8.46V28.8h62.73ZM422.47,41.34c0-2.2-1.88-4.08-4.08-4.08h-50.19c-2.2,0-4.08,1.88-4.08,4.08v22.06c0,2.2,1.88,3.97,4.08,3.97h50.19c2.2,0,4.08-1.77,4.08-3.97v-22.06Z"/>
    <path class="st2" d="M521.81,28.7c7.01,0,12.54,5.55,12.54,12.54v50.19c0,7.01-5.55,12.54-12.54,12.54h-50.19c-7.01,0-12.54-5.55-12.54-12.54v-50.19c0-7.01,5.53-12.54,12.54-12.54h50.19ZM521.81,95.5c2.2,0,4.08-1.88,4.08-4.08v-50.19c0-2.2-1.89-4.08-4.08-4.08h-50.19c-2.2,0-4.08,1.88-4.08,4.08v50.19c0,2.2,1.88,4.08,4.08,4.08h50.19Z"/>
  </g>
  <line class="st4" x1="29.75" y1="131.93" x2="702.55" y2="130.4"/>
</svg>