<?xml version="1.0" encoding="UTF-8"?>
<svg id="Capa_1" data-name="Capa 1" xmlns="http://www.w3.org/2000/svg" xmlns:xlink="http://www.w3.org/1999/xlink" viewBox="0 0 1423.5 1423.5">
  <defs>
    <style>
      .cls-1 {
        fill: url(#linear-gradient-2);
      }

      .cls-2, .cls-3 {
        fill: #fff;
      }

      .cls-4 {
        fill: url(#linear-gradient-4);
      }

      .cls-5 {
        fill: url(#radial-gradient);
      }

      .cls-3 {
        stroke: #f3f4f4;
      }

      .cls-3, .cls-6, .cls-7 {
        stroke-miterlimit: 10;
        stroke-width: .75px;
      }

      .cls-8 {
        fill: url(#linear-gradient-3);
      }

      .cls-9 {
        fill: url(#linear-gradient-5);
      }

      .cls-10 {
        fill: url(#linear-gradient-7);
      }

      .cls-6 {
        fill: url(#linear-gradient-8);
        stroke: #0972b8;
      }

      .cls-7 {
        fill: none;
        stroke: url(#linear-gradient-9);
      }

      .cls-11 {
        fill: url(#linear-gradient-6);
      }

      .cls-12 {
        fill: url(#linear-gradient);
      }
    </style>
    <radialGradient id="radial-gradient" cx="711.75" cy="711.75" fx="711.75" fy="711.75" r="711.75" gradientUnits="userSpaceOnUse">
      <stop offset="0" stop-color="#143240"/>
      <stop offset="1" stop-color="#1b1e3c"/>
    </radialGradient>
    <linearGradient id="linear-gradient" x1="243.82" y1="920.77" x2="243.82" y2="680.1" gradientUnits="userSpaceOnUse">
      <stop offset="0" stop-color="#1461aa"/>
      <stop offset=".11" stop-color="#1f6fb3"/>
      <stop offset=".51" stop-color="#499fd2"/>
      <stop offset=".82" stop-color="#62bce6"/>
      <stop offset="1" stop-color="#6cc8ee"/>
    </linearGradient>
    <linearGradient id="linear-gradient-2" x1="644.93" y1="926.02" x2="644.93" y2="666.62" gradientUnits="userSpaceOnUse">
      <stop offset="0" stop-color="#6cc8ee"/>
      <stop offset=".18" stop-color="#62bce6"/>
      <stop offset=".49" stop-color="#499fd2"/>
      <stop offset=".89" stop-color="#1f6fb3"/>
      <stop offset="1" stop-color="#1461aa"/>
    </linearGradient>
    <linearGradient id="linear-gradient-3" x1="178.31" y1="557.88" x2="469.83" y2="849.41" xlink:href="#linear-gradient"/>
    <linearGradient id="linear-gradient-4" x1="4780.94" y1="524.67" x2="5121.12" y2="864.85" gradientTransform="translate(5524.6) rotate(-180) scale(1 -1)" xlink:href="#linear-gradient-2"/>
    <linearGradient id="linear-gradient-5" x1="2346.44" y1="189.75" x2="2346.44" y2="-355.5" gradientTransform="translate(1063.4 2888.34) rotate(-90)" xlink:href="#linear-gradient"/>
    <linearGradient id="linear-gradient-6" x1="2040.36" y1="183.97" x2="2040.36" y2="-273.95" gradientTransform="translate(-1022.2 893.22)" xlink:href="#linear-gradient"/>
    <linearGradient id="linear-gradient-7" x1="1553.69" y1="747.63" x2="1553.69" y2="616.32" gradientTransform="translate(78.4 2248.34) rotate(-90)" xlink:href="#linear-gradient"/>
    <linearGradient id="linear-gradient-8" x1="-422.7" y1="447.18" x2="610.61" y2="447.18" gradientTransform="translate(396.92 -.9) rotate(.13) scale(.5 1) skewX(.39)" xlink:href="#linear-gradient-2"/>
    <linearGradient id="linear-gradient-9" x1="48.02" y1="711.83" x2="1375.31" y2="711.83" xlink:href="#linear-gradient-2"/>
  </defs>
  <circle class="cls-5" cx="711.75" cy="711.75" r="711.75"/>
  <g>
    <g>
      <polygon class="cls-12" points="185.99 694.84 185.99 905.75 301.66 905.75 301.66 810.52 185.99 694.84"/>
      <polygon class="cls-1" points="587.1 736.66 587.1 905.75 702.77 905.75 702.77 620.99 587.1 736.66"/>
      <polygon class="cls-8" points="444.38 742.16 185.99 483.77 185.99 647.36 444.38 905.75 444.38 742.16"/>
      <polygon class="cls-4" points="444.38 742.16 702.77 483.77 702.77 647.36 444.38 905.75 444.38 742.16"/>
      <g>
        <path class="cls-2" d="M186.06,987.28h-8.01v-8.01h8.01v8.01ZM178.05,1023.32v-32h8.01v32h-8.01Z"/>
        <path class="cls-2" d="M232.88,979.26v8.07h-17.93v35.98h-8.14v-35.98h-17.99v-8.07h44.06Z"/>
        <path class="cls-2" d="M273.23,979.26h8.14v35.55c0,4.71-3.86,8.5-8.5,8.5h-27.05c-4.71,0-8.5-3.79-8.5-8.5v-35.55h8.08v35.55c0,.25.19.43.43.43h27.05c.18,0,.36-.18.36-.43v-35.55Z"/>
        <path class="cls-2" d="M349.33,996.39c0,1.16-.19,2.2-.61,3.12,1.41,1.47,2.39,3.61,2.39,5.81v9.49c0,4.71-3.85,8.5-8.56,8.5h-35.49v-44.06h33.77c4.65,0,8.51,3.79,8.51,8.5v8.63ZM315.55,987.34c-.25,0-.43.19-.43.43v8.63c0,.25.18.43.43.43h25.27c.19,0,.37-.18.37-.43v-8.63c0-.25-.18-.43-.37-.43h-25.27ZM342.96,1005.33c0-.25-.19-.37-.43-.37h-26.99c-.25,0-.43.12-.43.37v9.49c0,.25.18.43.43.43h26.99c.24,0,.43-.18.43-.43v-9.49Z"/>
        <path class="cls-2" d="M357.8,979.26h8.08v44.06h-8.08v-44.06Z"/>
        <path class="cls-2" d="M411.78,987.34h-32.37v9.91h26.06v8.08h-26.06v9.91h32.37v8.08h-40.51v-44.06h40.51v8.07Z"/>
        <path class="cls-2" d="M453.9,979.26h8.14v44.06h-8.81l-27.17-32.31v32.31h-8.08v-44.06h8.81l27.11,32.31v-32.31Z"/>
        <path class="cls-2" d="M509.49,987.34h-32.37v9.91h26.06v8.08h-26.06v9.91h32.37v8.08h-40.51v-44.06h40.51v8.07Z"/>
        <path class="cls-2" d="M559.44,991.13h-8.14v-3.36c0-.25-.18-.43-.37-.43h-27.05c-.25,0-.43.19-.43.43v9.06c0,.25.18.43.43.43h27.05c4.65,0,8.5,3.79,8.5,8.5v9.06c0,4.71-3.85,8.5-8.5,8.5h-27.05c-4.71,0-8.5-3.79-8.5-8.5v-3.37h8.08v3.37c0,.25.18.43.43.43h27.05c.19,0,.37-.18.37-.43v-9.06c0-.24-.18-.43-.37-.43h-27.05c-4.71,0-8.5-3.79-8.5-8.5v-9.06c0-4.71,3.79-8.5,8.5-8.5h27.05c4.65,0,8.5,3.79,8.5,8.5v3.36Z"/>
        <path class="cls-2" d="M607.81,979.26v8.07h-17.93v35.98h-8.14v-35.98h-17.99v-8.07h44.06Z"/>
        <path class="cls-2" d="M647.97,979.26c4.71,0,8.57,3.79,8.57,8.5v35.55h-8.14v-14.81h-27.84v14.81h-8.08v-35.55c0-4.71,3.79-8.5,8.5-8.5h26.99ZM648.4,1000.43v-12.67c0-.25-.18-.43-.43-.43h-26.99c-.25,0-.43.19-.43.43v12.67h27.84Z"/>
        <path class="cls-2" d="M707.48,999.7c0,4.65-3.85,8.5-8.56,8.5h-2.39l10.95,13.03v2.08h-8.81l-12.73-15.11h-14.44v15.11h-8.08v-44h35.49c4.71,0,8.56,3.86,8.56,8.5v11.87ZM698.91,1000.12c.25,0,.43-.18.43-.43v-11.87c0-.25-.18-.43-.43-.43h-26.99c-.25,0-.43.18-.43.43v11.87c0,.25.18.43.43.43h26.99Z"/>
        <path class="cls-2" d="M768.65,979.26h8.14v44.06h-8.81l-27.17-32.31v32.31h-8.08v-44.06h8.81l27.11,32.31v-32.31Z"/>
        <path class="cls-2" d="M819.03,979.26c4.65,0,8.5,3.79,8.5,8.5v27.05c0,4.71-3.86,8.5-8.5,8.5h-27.05c-4.71,0-8.5-3.79-8.5-8.5v-27.05c0-4.71,3.79-8.5,8.5-8.5h27.05ZM819.03,1015.24c.18,0,.36-.18.36-.43v-27.05c0-.25-.18-.43-.36-.43h-27.05c-.24,0-.43.19-.43.43v27.05c0,.25.19.43.43.43h27.05Z"/>
        <path class="cls-2" d="M877.98,991.13h-8.14v-3.36c0-.25-.18-.43-.37-.43h-27.05c-.25,0-.43.19-.43.43v9.06c0,.25.18.43.43.43h27.05c4.65,0,8.5,3.79,8.5,8.5v9.06c0,4.71-3.85,8.5-8.5,8.5h-27.05c-4.71,0-8.5-3.79-8.5-8.5v-3.37h8.08v3.37c0,.25.18.43.43.43h27.05c.19,0,.37-.18.37-.43v-9.06c0-.24-.18-.43-.37-.43h-27.05c-4.71,0-8.5-3.79-8.5-8.5v-9.06c0-4.71,3.79-8.5,8.5-8.5h27.05c4.65,0,8.5,3.79,8.5,8.5v3.36Z"/>
        <path class="cls-2" d="M903.36,979.26h8.08v44.06h-8.08v-44.06Z"/>
        <path class="cls-2" d="M957.52,979.26h8.87v44.06h-8.14v-32.31l-16.71,19.89-16.77-19.89v32.31h-8.08v-44.06h8.81l16.03,19.09,15.97-19.09Z"/>
        <path class="cls-2" d="M1008.95,979.32c4.71,0,8.57,3.86,8.57,8.5v11.87c0,4.65-3.86,8.5-8.57,8.5l-27.23.06-.19-.06v15.11h-8.08v-44h35.49ZM1009.37,987.83c0-.25-.18-.43-.43-.43h-26.99c-.24,0-.43.18-.43.43v11.87c0,.25.19.43.43.43h26.99c.25,0,.43-.18.43-.43v-11.87Z"/>
        <path class="cls-2" d="M1057.25,979.26c4.65,0,8.5,3.79,8.5,8.5v27.05c0,4.71-3.86,8.5-8.5,8.5h-27.05c-4.71,0-8.5-3.79-8.5-8.5v-27.05c0-4.71,3.79-8.5,8.5-8.5h27.05ZM1057.25,1015.24c.18,0,.36-.18.36-.43v-27.05c0-.25-.18-.43-.36-.43h-27.05c-.24,0-.43.19-.43.43v27.05c0,.25.19.43.43.43h27.05Z"/>
        <path class="cls-2" d="M1116.45,999.7c0,4.65-3.85,8.5-8.56,8.5h-2.39l10.95,13.03v2.08h-8.81l-12.73-15.11h-14.44v15.11h-8.08v-44h35.49c4.71,0,8.56,3.86,8.56,8.5v11.87ZM1107.88,1000.12c.25,0,.43-.18.43-.43v-11.87c0-.25-.18-.43-.43-.43h-26.99c-.25,0-.43.18-.43.43v11.87c0,.25.18.43.43.43h26.99Z"/>
        <path class="cls-2" d="M1164.76,979.26v8.07h-17.93v35.98h-8.14v-35.98h-17.99v-8.07h44.06Z"/>
        <path class="cls-2" d="M1204.92,979.26c4.71,0,8.57,3.79,8.57,8.5v35.55h-8.14v-14.81h-27.84v14.81h-8.08v-35.55c0-4.71,3.79-8.5,8.5-8.5h26.99ZM1205.35,1000.43v-12.67c0-.25-.18-.43-.43-.43h-26.99c-.25,0-.43.19-.43.43v12.67h27.84Z"/>
        <path class="cls-2" d="M1220.55,979.26h8.02v32h-8.02v-32ZM1220.55,1023.32v-8.01h8.02v8.01h-8.02Z"/>
      </g>
      <polygon class="cls-9" points="1219.13 482.9 1219.13 598.56 841.58 600.9 741.32 483.49 1219.13 482.9"/>
      <rect class="cls-11" x="960.33" y="647.33" width="115.66" height="401.29" transform="translate(170.18 1866.14) rotate(-90)"/>
      <polygon class="cls-10" points="817.84 905.8 817.84 613.3 702.77 483.49 702.77 905.8 817.84 905.8"/>
      <path class="cls-3" d="M717.73,739.02c.28-17.7-12.64-27.25-27.82-27.25-17.42,0-28.94,10.68-28.94,25.57,0,12.64,7.02,23.04,20.51,37.37l64.62,65.47c3.65-5.06,7.02-10.68,10.68-16.86l17.98-30.06h21.07l-21.35,36.81c-5.06,8.71-10.11,16.58-15.17,23.6l41.02,41.3h-25.57l-26.69-27.25c-19.11,20.79-39.9,30.63-67.43,30.63-39.62,0-66.87-23.6-66.87-59.57,0-27.53,16.02-48.61,46.36-60.41-13.21-14.33-18.83-26.13-18.83-40.74,0-24.73,19.39-42.15,49.45-42.15,28.1,0,47.76,17.7,46.64,43.55h-19.67ZM735.15,854.5l-62.66-63.5c-26.69,9.83-39.05,25.57-39.05,47.2,0,24.72,19.39,42.99,47.2,42.99,22.2,0,38.77-8.43,54.51-26.69Z"/>
    </g>
    <g>
      <path class="cls-2" d="M246.6,379.67h-6.5v-2.33c0-1.69-1.44-3.13-3.13-3.13h-38.54c-1.69,0-3.13,1.44-3.13,3.13v38.54c0,1.69,1.44,3.13,3.13,3.13h38.54c1.69,0,3.13-1.44,3.13-3.13v-14.29h-14.29v-6.58h20.79v20.87c0,5.38-4.26,9.63-9.63,9.63h-38.54c-5.38,0-9.63-4.26-9.63-9.63v-38.54c0-5.38,4.26-9.63,9.63-9.63h38.54c5.38,0,9.63,4.26,9.63,9.63v2.33Z"/>
      <path class="cls-2" d="M329.22,394.36c0,5.3-4.26,9.63-9.63,9.63h-8.83l18.14,21.52h-8.59l-18.06-21.52h-21.19c-.8,0-1.93-.16-3.13-.32v21.84h-6.5v-57.72h48.17c5.38,0,9.63,4.34,9.63,9.63v16.94ZM319.59,397.41c1.69,0,3.05-1.36,3.05-3.05v-16.94c0-1.69-1.36-3.13-3.05-3.13h-38.54c-1.69,0-3.13,1.44-3.13,3.13v16.94c0,1.69,1.44,3.05,3.13,3.05h38.54Z"/>
      <path class="cls-2" d="M404.95,367.71h6.5v48.17c0,5.38-4.26,9.63-9.63,9.63h-38.54c-5.38,0-9.63-4.26-9.63-9.63v-48.17h6.5v48.17c0,1.69,1.44,3.13,3.13,3.13h38.54c1.69,0,3.13-1.44,3.13-3.13v-48.17Z"/>
      <path class="cls-2" d="M484.52,367.79c5.38,0,9.63,4.34,9.63,9.63v16.94c0,5.3-4.26,9.63-9.63,9.63h-38.54c-.72,0-1.93-.16-3.13-.32v21.84h-6.5v-57.72h48.17ZM487.65,377.42c0-1.69-1.44-3.13-3.13-3.13h-38.54c-1.69,0-3.13,1.44-3.13,3.13v16.94c0,1.69,1.44,3.05,3.13,3.05h38.54c1.69,0,3.13-1.36,3.13-3.05v-16.94Z"/>
      <path class="cls-2" d="M563.94,367.71c5.38,0,9.63,4.26,9.63,9.63v38.54c0,5.38-4.26,9.63-9.63,9.63h-38.54c-5.38,0-9.63-4.26-9.63-9.63v-38.54c0-5.38,4.25-9.63,9.63-9.63h38.54ZM563.94,419.01c1.69,0,3.13-1.44,3.13-3.13v-38.54c0-1.69-1.45-3.13-3.13-3.13h-38.54c-1.69,0-3.13,1.44-3.13,3.13v38.54c0,1.69,1.44,3.13,3.13,3.13h38.54Z"/>
    </g>
    <line class="cls-6" x1="186.08" y1="446.98" x2="702.73" y2="445.81"/>
  </g>
  <circle class="cls-7" cx="711.66" cy="711.83" r="663.27"/>
</svg>