<?xml version="1.0" encoding="UTF-8"?>
<svg id="Capa_1" xmlns="http://www.w3.org/2000/svg" version="1.1" viewBox="0 0 1423.5 926.52">
  <!-- Generator: Adobe Illustrator 29.6.1, SVG Export Plug-In . SVG Version: 2.1.1 Build 9)  -->
  <defs>
    <style>
      .st0 {
        fill: #fff;
      }

      .st1 {
        fill: none;
        stroke: #fff;
        stroke-miterlimit: 10;
        stroke-width: 3px;
      }
    </style>
  </defs>
  <g>
    <polygon class="st0" points="38.07 462.38 38.07 737.03 188.7 737.03 188.7 613.02 38.07 462.38"/>
    <polygon class="st0" points="374.56 524.01 38.07 187.51 38.07 400.54 374.56 737.03 374.56 524.01"/>
    <polygon class="st0" points="374.56 524.01 711.05 187.51 711.05 400.54 374.56 737.03 374.56 524.01"/>
    <g>
      <path class="st0" d="M38.16,843.21h-10.43v-10.43h10.43v10.43ZM27.73,890.14v-41.67h10.43v41.67h-10.43Z"/>
      <path class="st0" d="M99.13,832.77v10.51h-23.35v46.86h-10.6v-46.86h-23.43v-10.51h57.38Z"/>
      <path class="st0" d="M151.68,832.77h10.6v46.3c0,6.13-5.03,11.07-11.07,11.07h-35.23c-6.13,0-11.07-4.94-11.07-11.07v-46.3h10.52v46.3c0,.33.25.56.56.56h35.23c.23,0,.47-.23.47-.56v-46.3h-.01Z"/>
      <path class="st0" d="M250.78,855.08c0,1.51-.25,2.86-.79,4.06,1.84,1.91,3.11,4.7,3.11,7.57v12.36c0,6.13-5.01,11.07-11.15,11.07h-46.22v-57.38h43.98c6.06,0,11.08,4.94,11.08,11.07v11.24h-.01ZM206.79,843.28c-.33,0-.56.25-.56.56v11.24c0,.33.23.56.56.56h32.91c.25,0,.48-.23.48-.56v-11.24c0-.33-.23-.56-.48-.56h-32.91ZM242.48,866.71c0-.33-.25-.48-.56-.48h-35.15c-.33,0-.56.16-.56.48v12.36c0,.33.23.56.56.56h35.15c.31,0,.56-.23.56-.56v-12.36h0Z"/>
      <path class="st0" d="M261.81,832.77h10.52v57.38h-10.52v-57.38h0Z"/>
      <path class="st0" d="M332.1,843.28h-42.15v12.91h33.94v10.52h-33.94v12.91h42.15v10.52h-52.75v-57.38h52.75v10.51h0Z"/>
      <path class="st0" d="M386.96,832.77h10.6v57.38h-11.47l-35.38-42.08v42.08h-10.52v-57.38h11.47l35.3,42.08v-42.08h0Z"/>
      <path class="st0" d="M459.35,843.28h-42.15v12.91h33.94v10.52h-33.94v12.91h42.15v10.52h-52.75v-57.38h52.75v10.51h0Z"/>
      <path class="st0" d="M524.39,848.22h-10.6v-4.38c0-.33-.23-.56-.48-.56h-35.23c-.33,0-.56.25-.56.56v11.8c0,.33.23.56.56.56h35.23c6.06,0,11.07,4.94,11.07,11.07v11.8c0,6.13-5.01,11.07-11.07,11.07h-35.23c-6.13,0-11.07-4.94-11.07-11.07v-4.39h10.52v4.39c0,.33.23.56.56.56h35.23c.25,0,.48-.23.48-.56v-11.8c0-.31-.23-.56-.48-.56h-35.23c-6.13,0-11.07-4.94-11.07-11.07v-11.8c0-6.13,4.94-11.07,11.07-11.07h35.23c6.06,0,11.07,4.94,11.07,11.07v4.38h0Z"/>
      <path class="st0" d="M587.38,832.77v10.51h-23.35v46.86h-10.6v-46.86h-23.43v-10.51h57.38,0Z"/>
      <path class="st0" d="M639.68,832.77c6.13,0,11.16,4.94,11.16,11.07v46.3h-10.6v-19.29h-36.25v19.29h-10.52v-46.3c0-6.13,4.94-11.07,11.07-11.07h35.15-.01ZM640.24,860.33v-16.5c0-.33-.23-.56-.56-.56h-35.15c-.33,0-.56.25-.56.56v16.5h36.27Z"/>
      <path class="st0" d="M717.18,859.39c0,6.06-5.01,11.07-11.15,11.07h-3.11l14.26,16.97v2.71h-11.47l-16.58-19.68h-18.8v19.68h-10.52v-57.3h46.22c6.13,0,11.15,5.03,11.15,11.07v15.48h.01-.01ZM706.02,859.94c.33,0,.56-.23.56-.56v-15.46c0-.33-.23-.56-.56-.56h-35.15c-.33,0-.56.23-.56.56v15.46c0,.33.23.56.56.56h35.15Z"/>
      <path class="st0" d="M796.84,832.77h10.6v57.38h-11.47l-35.38-42.08v42.08h-10.52v-57.38h11.47l35.3,42.08v-42.08h0Z"/>
      <path class="st0" d="M862.45,832.77c6.06,0,11.07,4.94,11.07,11.07v35.23c0,6.13-5.03,11.07-11.07,11.07h-35.23c-6.13,0-11.07-4.94-11.07-11.07v-35.23c0-6.13,4.94-11.07,11.07-11.07h35.23ZM862.45,879.63c.23,0,.47-.23.47-.56v-35.23c0-.33-.23-.56-.47-.56h-35.23c-.31,0-.56.25-.56.56v35.23c0,.33.25.56.56.56h35.23Z"/>
      <path class="st0" d="M939.21,848.22h-10.6v-4.38c0-.33-.23-.56-.48-.56h-35.23c-.33,0-.56.25-.56.56v11.8c0,.33.23.56.56.56h35.23c6.06,0,11.07,4.94,11.07,11.07v11.8c0,6.13-5.01,11.07-11.07,11.07h-35.23c-6.13,0-11.07-4.94-11.07-11.07v-4.39h10.52v4.39c0,.33.23.56.56.56h35.23c.25,0,.48-.23.48-.56v-11.8c0-.31-.23-.56-.48-.56h-35.23c-6.13,0-11.07-4.94-11.07-11.07v-11.8c0-6.13,4.94-11.07,11.07-11.07h35.23c6.06,0,11.07,4.94,11.07,11.07v4.38h0Z"/>
      <path class="st0" d="M972.27,832.77h10.52v57.38h-10.52v-57.38Z"/>
      <path class="st0" d="M1042.8,832.77h11.55v57.38h-10.6v-42.08l-21.76,25.9-21.84-25.9v42.08h-10.52v-57.38h11.47l20.88,24.86,20.8-24.86h.03-.01Z"/>
      <path class="st0" d="M1109.77,832.84c6.13,0,11.16,5.03,11.16,11.07v15.46c0,6.06-5.03,11.07-11.16,11.07l-35.46.08-.25-.08v19.68h-10.52v-57.3h46.22v.03h.01ZM1110.32,843.92c0-.33-.23-.56-.56-.56h-35.15c-.31,0-.56.23-.56.56v15.46c0,.33.25.56.56.56h35.15c.33,0,.56-.23.56-.56v-15.46Z"/>
      <path class="st0" d="M1172.67,832.77c6.06,0,11.07,4.94,11.07,11.07v35.23c0,6.13-5.03,11.07-11.07,11.07h-35.23c-6.13,0-11.07-4.94-11.07-11.07v-35.23c0-6.13,4.94-11.07,11.07-11.07h35.23ZM1172.67,879.63c.23,0,.47-.23.47-.56v-35.23c0-.33-.23-.56-.47-.56h-35.23c-.31,0-.56.25-.56.56v35.23c0,.33.25.56.56.56h35.23Z"/>
      <path class="st0" d="M1249.76,859.39c0,6.06-5.01,11.07-11.15,11.07h-3.11l14.26,16.97v2.71h-11.47l-16.58-19.68h-18.8v19.68h-10.52v-57.3h46.22c6.13,0,11.15,5.03,11.15,11.07v15.48h.01-.01ZM1238.6,859.94c.33,0,.56-.23.56-.56v-15.46c0-.33-.23-.56-.56-.56h-35.15c-.33,0-.56.23-.56.56v15.46c0,.33.23.56.56.56h35.15Z"/>
      <path class="st0" d="M1312.67,832.77v10.51h-23.35v46.86h-10.6v-46.86h-23.43v-10.51h57.38Z"/>
      <path class="st0" d="M1364.97,832.77c6.13,0,11.16,4.94,11.16,11.07v46.3h-10.6v-19.29h-36.25v19.29h-10.52v-46.3c0-6.13,4.94-11.07,11.07-11.07h35.15-.01ZM1365.53,860.33v-16.5c0-.33-.23-.56-.56-.56h-35.15c-.33,0-.56.25-.56.56v16.5h36.27Z"/>
      <path class="st0" d="M1385.33,832.77h10.44v41.67h-10.44v-41.67ZM1385.33,890.14v-10.43h10.44v10.43h-10.44Z"/>
    </g>
    <polygon class="st0" points="1383.48 186.37 1383.48 337 891.81 340.04 761.25 187.14 1383.48 186.37"/>
    <rect class="st0" x="860.47" y="586.5" width="522.58" height="150.62"/>
    <g>
      <path class="st0" d="M620.76,649.08c0,32.19,25.25,55.98,61.47,55.98,10.47,0,19.98-1.45,28.82-4.42v-73.07l-39.44-39.97c-34.76,12.8-50.85,33.3-50.85,61.47Z"/>
      <path class="st0" d="M694.3,484.42c-22.69,0-37.69,13.91-37.69,33.3,0,16.46,9.14,30,26.71,48.67l27.73,28.1v-106.69c-5.05-2.23-10.76-3.38-16.75-3.38Z"/>
      <path class="st0" d="M682.22,727.39c-51.6,0-87.08-30.73-87.08-77.58,0-35.85,20.86-63.3,60.37-78.67-17.2-18.66-24.52-34.03-24.52-53.05,0-32.2,25.25-54.89,64.4-54.89,5.49,0,10.72.53,15.66,1.52v-98.52l-150.63,150.63v220.2h150.63v-12.84c-8.99,2.14-18.55,3.2-28.83,3.2Z"/>
    </g>
    <g>
      <path class="st0" d="M753.22,670.44h-.01l-42.16-42.72v73.07c15.58-5.23,29.09-15.18,42.17-30.34Z"/>
      <path class="st0" d="M711.05,187.29v277.58c28,5.64,46.32,26.57,45.08,55.19h-25.6c.25-16.07-7.85-26.97-19.48-32.11v106.69l56.42,57.16c4.75-6.59,9.14-13.91,13.91-21.96l23.41-39.15h27.44l-27.8,47.94c-6.59,11.34-13.17,21.59-19.76,30.73l53.42,53.78h-33.3l-34.76-35.49c-17.75,19.31-36.62,31.36-58.98,36.69v12.91h149.85v-380.91l-149.85-169.05Z"/>
    </g>
  </g>
  <g>
    <path class="st0" d="M117,51.94h-8.46v-3.03c0-2.2-1.88-4.08-4.08-4.08h-50.19c-2.2,0-4.08,1.88-4.08,4.08v50.19c0,2.2,1.88,4.08,4.08,4.08h50.19c2.2,0,4.08-1.88,4.08-4.08v-18.61h-18.61v-8.57h27.07v27.18c0,7.01-5.55,12.54-12.54,12.54h-50.19c-7.01,0-12.54-5.55-12.54-12.54v-50.19c0-7.01,5.55-12.54,12.54-12.54h50.19c7.01,0,12.54,5.55,12.54,12.54,0,0,0,3.03,0,3.03Z"/>
    <path class="st0" d="M224.59,71.07c0,6.9-5.55,12.54-12.54,12.54h-11.5l23.62,28.02h-11.19l-23.52-28.02h-27.59c-1.04,0-2.51-.21-4.08-.42v28.44h-8.46V36.47h62.73c7.01,0,12.54,5.65,12.54,12.54v22.06h0,0ZM212.05,75.04c2.2,0,3.97-1.77,3.97-3.97v-22.06c0-2.2-1.77-4.08-3.97-4.08h-50.19c-2.2,0-4.08,1.88-4.08,4.08v22.06c0,2.2,1.88,3.97,4.08,3.97h50.19Z"/>
    <path class="st0" d="M323.21,36.37h8.46v62.73c0,7.01-5.55,12.54-12.54,12.54h-50.19c-7.01,0-12.54-5.55-12.54-12.54v-62.73h8.46v62.73c0,2.2,1.88,4.08,4.08,4.08h50.19c2.2,0,4.08-1.88,4.08-4.08v-62.73h0Z"/>
    <path class="st0" d="M426.83,36.47c7.01,0,12.54,5.65,12.54,12.54v22.06c0,6.9-5.55,12.54-12.54,12.54h-50.19c-.94,0-2.51-.21-4.08-.42v28.44h-8.46V36.47h62.73,0ZM430.91,49.01c0-2.2-1.88-4.08-4.08-4.08h-50.19c-2.2,0-4.08,1.88-4.08,4.08v22.06c0,2.2,1.88,3.97,4.08,3.97h50.19c2.2,0,4.08-1.77,4.08-3.97v-22.06Z"/>
    <path class="st0" d="M530.25,36.37c7.01,0,12.54,5.55,12.54,12.54v50.19c0,7.01-5.55,12.54-12.54,12.54h-50.19c-7.01,0-12.54-5.55-12.54-12.54v-50.19c0-7.01,5.53-12.54,12.54-12.54h50.19ZM530.25,103.17c2.2,0,4.08-1.88,4.08-4.08v-50.19c0-2.2-1.89-4.08-4.08-4.08h-50.19c-2.2,0-4.08,1.88-4.08,4.08v50.19c0,2.2,1.88,4.08,4.08,4.08h50.19Z"/>
  </g>
  <line class="st1" x1="38.19" y1="139.6" x2="710.99" y2="138.07"/>
</svg>